<svg xmlns="http://www.w3.org/2000/svg" width="760" height="308" viewBox="0 0 760 308" role="img" aria-labelledby="title desc"><title id="title">Observed starts by work type</title><desc id="desc">Observed proxy data. Not token billing.</desc><rect width="100%" height="100%" fill="#0b1020"/><text x="24" y="32" fill="#f8fafc" font-family="Arial" font-size="18" font-weight="700">Observed starts by work type</text><text x="24" y="53" fill="#94a3b8" font-family="Arial" font-size="12">Observed/proxy data — not token billing</text><text x="24" y="95" fill="#cbd5e1" font-family="Arial" font-size="13">implementation/other</text><rect x="250" y="80" width="430" height="20" rx="4" fill="#38bdf8"/><text x="690" y="95" fill="#f8fafc" font-family="Arial" font-size="13" text-anchor="end">55</text><text x="24" y="129" fill="#cbd5e1" font-family="Arial" font-size="13">release/deploy</text><rect x="250" y="114" width="258" height="20" rx="4" fill="#38bdf8"/><text x="690" y="129" fill="#f8fafc" font-family="Arial" font-size="13" text-anchor="end">33</text><text x="24" y="163" fill="#cbd5e1" font-family="Arial" font-size="13">review</text><rect x="250" y="148" width="125" height="20" rx="4" fill="#38bdf8"/><text x="690" y="163" fill="#f8fafc" font-family="Arial" font-size="13" text-anchor="end">16</text><text x="24" y="197" fill="#cbd5e1" font-family="Arial" font-size="13">diagnostic</text><rect x="250" y="182" width="102" height="20" rx="4" fill="#38bdf8"/><text x="690" y="197" fill="#f8fafc" font-family="Arial" font-size="13" text-anchor="end">13</text><text x="24" y="231" fill="#cbd5e1" font-family="Arial" font-size="13">locator</text><rect x="250" y="216" width="55" height="20" rx="4" fill="#38bdf8"/><text x="690" y="231" fill="#f8fafc" font-family="Arial" font-size="13" text-anchor="end">7</text><text x="24" y="265" fill="#cbd5e1" font-family="Arial" font-size="13">safety</text><rect x="250" y="250" width="16" height="20" rx="4" fill="#38bdf8"/><text x="690" y="265" fill="#f8fafc" font-family="Arial" font-size="13" text-anchor="end">2</text><text x="24" y="299" fill="#cbd5e1" font-family="Arial" font-size="13">architect</text><rect x="250" y="284" width="8" height="20" rx="4" fill="#38bdf8"/><text x="690" y="299" fill="#f8fafc" font-family="Arial" font-size="13" text-anchor="end">1</text></svg>
